<?xml version="1.0" standalone="no"?>
<svg viewBox="0 0 200 200" xmlns="http://www.w3.org/2000/svg">
  <path fill="#FF0066" d="M46.3,-61.4C60.3,-63,72.2,-50.7,73.3,-36.8C74.4,-23,64.7,-7.5,58.6,5.7C52.5,19,49.9,30,43,36.1C36,42.2,24.5,43.4,13.9,45.7C3.3,48,-6.4,51.6,-20.2,54.2C-33.9,56.8,-51.7,58.5,-56.3,50.3C-61,42.2,-52.5,24.3,-55.5,7.6C-58.5,-9.1,-73,-24.5,-69.3,-31.3C-65.6,-38.1,-43.9,-36.2,-29.3,-34.4C-14.7,-32.5,-7.4,-30.6,4.4,-37.4C16.1,-44.2,32.3,-59.8,46.3,-61.4Z" transform="translate(100 100)" />
</svg>
