<?xml version="1.0" standalone="no"?>
<svg viewBox="0 0 200 200" xmlns="http://www.w3.org/2000/svg">
  <path fill="#FF0066" d="M34.9,-50.7C45.2,-47.6,53.8,-38,54.9,-27.4C56,-16.9,49.8,-5.3,50,8.6C50.3,22.6,57,38.9,52.1,45.7C47.1,52.6,30.5,49.9,16.2,53.1C2,56.3,-10,65.4,-24.1,67.8C-38.3,70.2,-54.7,65.9,-58.4,54.5C-62.2,43.2,-53.3,24.8,-51,10.1C-48.8,-4.5,-53.3,-15.4,-51.8,-25.7C-50.3,-36,-42.9,-45.7,-33.3,-49.1C-23.7,-52.6,-11.8,-50,0.2,-50.3C12.2,-50.6,24.5,-53.9,34.9,-50.7Z" transform="translate(100 100)" />
</svg>
