<?xml version="1.0" standalone="no"?>
<svg viewBox="0 0 200 200" xmlns="http://www.w3.org/2000/svg">
  <path fill="#FF0066" d="M41.8,-70.8C51.5,-58.9,54.6,-42.6,59.2,-28.3C63.9,-13.9,70,-1.5,70.3,11.5C70.5,24.4,64.8,37.8,55.5,47.3C46.1,56.9,33,62.5,19.8,65.7C6.5,68.8,-7.1,69.5,-19.8,66.3C-32.5,63.1,-44.4,55.9,-55.6,46.3C-66.8,36.7,-77.3,24.7,-82.5,9.9C-87.6,-4.8,-87.4,-22.3,-78.6,-33.6C-69.9,-44.8,-52.6,-49.9,-38.1,-59.5C-23.5,-69.1,-11.8,-83.3,2.2,-86.7C16.1,-90,32.2,-82.6,41.8,-70.8Z" transform="translate(100 100)" />
</svg>
