<?xml version="1.0" standalone="no"?>
<svg viewBox="0 0 200 200" xmlns="http://www.w3.org/2000/svg">
  <path fill="#FF0066" d="M48.3,-74.5C62.7,-65.8,74.6,-52.7,81.5,-37.3C88.4,-21.9,90.3,-4.3,87.9,12.6C85.4,29.6,78.6,45.9,67.4,57.9C56.2,70,40.7,77.8,24.4,81.9C8.2,86.1,-8.7,86.6,-24.8,82.7C-41,78.8,-56.4,70.5,-67.5,58.2C-78.6,45.9,-85.3,29.6,-87.7,12.6C-90.1,-4.3,-88.1,-21.8,-81.7,-38C-75.3,-54.1,-64.6,-68.9,-50.2,-77.6C-35.8,-86.2,-17.9,-88.8,-0.5,-88C16.9,-87.3,33.8,-83.1,48.3,-74.5Z" transform="translate(100 100)" />
</svg>
