<?xml version="1.0" standalone="no"?>
<svg viewBox="0 0 200 200" xmlns="http://www.w3.org/2000/svg">
  <path fill="#FF0066" d="M39.3,-64.9C50,-54.2,57.2,-41.8,64.3,-28.7C71.3,-15.5,78.2,-1.7,74.8,9.6C71.3,20.8,57.5,29.4,44.6,31.5C31.6,33.6,19.5,29.2,11.3,25.7C3.2,22.2,-0.9,19.6,-4.6,17.6C-8.2,15.6,-11.5,14.2,-22.2,13C-32.9,11.9,-51,10.9,-60.3,3.3C-69.7,-4.2,-70.4,-18.3,-62.5,-25.6C-54.6,-32.8,-38,-33.1,-26.2,-43.3C-14.3,-53.5,-7.2,-73.6,3.6,-79.1C14.3,-84.7,28.5,-75.6,39.3,-64.9Z" transform="translate(100 100)" />
</svg>
