<?xml version="1.0" standalone="no"?>
<svg viewBox="0 0 200 200" xmlns="http://www.w3.org/2000/svg">
  <path fill="#FF0066" d="M46.8,-69.1C61.6,-63.3,75.3,-51.9,78.3,-37.9C81.3,-23.9,73.8,-7.2,63.2,3.3C52.6,13.7,39,17.9,31.8,29.1C24.5,40.3,23.5,58.5,15.6,67.3C7.7,76.1,-7.2,75.6,-20.4,71C-33.6,66.4,-45.2,57.8,-56.9,47.5C-68.6,37.2,-80.3,25.2,-85.2,10.5C-90.1,-4.3,-88.1,-21.8,-78.5,-33C-69,-44.3,-52,-49.3,-37.6,-55.4C-23.3,-61.5,-11.6,-68.8,2.2,-72.1C16,-75.5,31.9,-75,46.8,-69.1Z" transform="translate(100 100)" />
</svg>
