<?xml version="1.0" standalone="no"?>
<svg viewBox="0 0 200 200" xmlns="http://www.w3.org/2000/svg">
  <path fill="#FF0066" d="M37.1,-60.8C49.4,-49.8,61.7,-41.8,70.5,-30C79.4,-18.2,84.8,-2.6,82.9,12C80.9,26.7,71.8,40.5,61.3,53.9C50.9,67.3,39.2,80.4,25.4,82.9C11.5,85.4,-4.4,77.3,-20,71.2C-35.6,65.2,-50.8,61.2,-59.6,51.4C-68.4,41.7,-70.7,26.1,-70.1,11.8C-69.6,-2.6,-66.2,-15.6,-60.5,-27.4C-54.8,-39.2,-46.8,-49.7,-36.3,-61.6C-25.8,-73.4,-12.9,-86.5,-0.3,-86.1C12.4,-85.7,24.8,-71.8,37.1,-60.8Z" transform="translate(100 100)" />
</svg>
