<?xml version="1.0" standalone="no"?>
<svg viewBox="0 0 200 200" xmlns="http://www.w3.org/2000/svg">
  <path fill="#FF0066" d="M40.3,-61.7C49.3,-57,51.5,-40.8,52.4,-27.3C53.3,-13.8,53,-3.1,53.1,8.8C53.3,20.8,53.9,34,48.7,44.8C43.4,55.5,32.3,63.8,20.9,63.7C9.5,63.6,-2.1,55.1,-11.7,48.4C-21.4,41.7,-29.1,36.8,-40.5,31C-51.9,25.2,-67,18.5,-74.6,6.9C-82.2,-4.7,-82.3,-21.1,-72.5,-29.1C-62.7,-37.1,-43,-36.6,-29.2,-39.2C-15.5,-41.7,-7.7,-47.2,4,-53.3C15.7,-59.5,31.4,-66.4,40.3,-61.7Z" transform="translate(100 100)" />
</svg>
