<?xml version="1.0" standalone="no"?>
<svg viewBox="0 0 200 200" xmlns="http://www.w3.org/2000/svg">
  <path fill="#FF0066" d="M41.7,-65.9C53.6,-57.2,62.6,-44.9,69.3,-31.3C76,-17.7,80.4,-2.8,81.1,13.6C81.7,29.9,78.6,47.6,68.2,58.4C57.8,69.3,40.2,73.2,23.9,75.1C7.6,77,-7.5,76.9,-21.7,73C-35.8,69.2,-49.1,61.6,-60.3,51C-71.5,40.3,-80.7,26.6,-81.9,12.3C-83.1,-2,-76.3,-16.9,-69,-31C-61.7,-45.1,-53.9,-58.4,-42.3,-67.3C-30.7,-76.1,-15.4,-80.6,-0.2,-80.2C14.9,-79.8,29.7,-74.6,41.7,-65.9Z" transform="translate(100 100)" />
</svg>
