<?xml version="1.0" standalone="no"?>
<svg viewBox="0 0 200 200" xmlns="http://www.w3.org/2000/svg">
  <path fill="#FF0066" d="M36.2,-55.9C48.7,-48.4,61.6,-41.2,64.5,-30.7C67.4,-20.2,60.2,-6.3,55.8,6.4C51.4,19.1,49.9,30.5,45.3,43.7C40.8,57,33.2,72,22,75.8C10.8,79.5,-4.1,71.9,-18.8,66.5C-33.5,61,-48,57.6,-60.8,49.2C-73.5,40.7,-84.5,27.2,-82.6,14.3C-80.6,1.4,-65.7,-10.9,-54.8,-21.1C-44,-31.3,-37.3,-39.4,-28.8,-48.7C-20.3,-57.9,-10.2,-68.4,0.9,-69.8C11.9,-71.1,23.8,-63.3,36.2,-55.9Z" transform="translate(100 100)" />
</svg>
