<?xml version="1.0" standalone="no"?>
<svg viewBox="0 0 200 200" xmlns="http://www.w3.org/2000/svg">
  <path fill="#FF0066" d="M34.7,-50.7C46.4,-46.6,58.1,-39.2,63.9,-28.6C69.7,-17.9,69.6,-4,65.1,7.5C60.6,19,51.7,28.1,44.8,42.3C37.9,56.4,32.9,75.8,24.2,74.8C15.6,73.9,3.2,52.6,-7.4,41.9C-17.9,31.1,-26.6,30.8,-33.5,26.8C-40.5,22.8,-45.8,15.1,-46.3,7.1C-46.8,-1,-42.6,-9.2,-36.1,-13.6C-29.6,-18,-20.9,-18.5,-14.5,-24.9C-8.1,-31.4,-4.1,-43.9,3.7,-49.8C11.5,-55.6,23.1,-54.7,34.7,-50.7Z" transform="translate(100 100)" />
</svg>
