<?xml version="1.0" standalone="no"?>
<svg viewBox="0 0 200 200" xmlns="http://www.w3.org/2000/svg">
  <path fill="#FF0066" d="M36.9,-54.9C49.3,-49.5,61.9,-41.7,68.2,-30.4C74.5,-19.1,74.6,-4.2,70.5,8.7C66.5,21.6,58.2,32.5,49.7,44.2C41.3,56,32.6,68.6,21.1,71.9C9.7,75.2,-4.4,69.2,-16.3,62.5C-28.2,55.8,-37.9,48.5,-45.2,39.5C-52.5,30.5,-57.5,19.7,-61.7,7.3C-65.9,-5.1,-69.3,-19.2,-66.9,-33C-64.4,-46.9,-56.1,-60.6,-44,-66.2C-31.9,-71.7,-15.9,-69,-1.8,-66.1C12.3,-63.3,24.5,-60.3,36.9,-54.9Z" transform="translate(100 100)" />
</svg>
