<svg width="920" height="920" viewBox="0 0 920 920" fill="none" xmlns="http://www.w3.org/2000/svg">
<path d="M146.3 38.6C160.3 37 172.2 49.3 173.3 63.2C174.4 77 164.7 92.5 158.6 105.7C152.5 119 149.9 130 143 136.1C136 142.2 124.5 143.4 113.9 145.7C103.3 148 93.6 151.6 79.8 154.2C66.1 156.8 48.3 158.5 43.7 150.3C39 142.2 47.5 124.3 44.5 107.6C41.5 90.9 27 75.5 30.7 68.7C34.4 61.9 56.1 63.8 70.7 65.6C85.3 67.5 92.6 69.4 104.4 62.6C116.1 55.8 132.3 40.2 146.3 38.6Z" fill="#FF0066"/>
<path d="M374.9 49.3C385.2 52.4 393.8 62 394.9 72.6C396 83.1 389.8 94.7 390 108.6C390.3 122.6 397 138.9 392.1 145.7C387.1 152.6 370.5 149.9 356.2 153.1C342 156.3 330 165.4 315.9 167.8C301.7 170.2 285.3 165.9 281.6 154.5C277.8 143.2 286.7 124.8 289 110.1C291.2 95.5 286.7 84.6 288.2 74.3C289.7 64 297.1 54.3 306.7 50.9C316.3 47.4 328.2 50 340.2 49.7C352.2 49.4 364.5 46.1 374.9 49.3Z" fill="#FF0066"/>
<path d="M621.7 34.1C633.6 42.8 642.6 55.1 649.3 68.7C656 82.3 660.4 97.2 661.1 113.6C661.7 129.9 658.6 147.6 648.2 158.4C637.8 169.3 620.2 173.2 603.9 175.1C587.6 177 572.5 176.9 558.3 173C544.2 169.2 530.9 161.6 519.7 151C508.5 140.3 499.3 126.6 498.1 112.3C496.9 98 503.7 83.1 511 69C518.3 54.9 526.1 41.6 537.7 32.7C549.3 23.9 564.6 19.4 579.8 19.8C594.9 20.2 609.7 25.4 621.7 34.1Z" fill="#FF0066"/>
<path d="M868.3 25.5C882.7 34.2 894.6 47.3 901.5 62.7C908.4 78.1 910.3 95.7 907.9 112.6C905.4 129.6 898.6 145.9 887.4 157.9C876.2 170 860.7 177.8 844.4 181.9C828.2 186.1 811.3 186.6 795.2 182.7C779 178.8 763.6 170.5 752.5 158.2C741.4 145.9 734.7 129.6 732.3 112.6C729.9 95.7 731.9 78.2 738.3 62C744.7 45.9 755.4 31.1 769.8 22.4C784.2 13.8 802.1 11.2 819.5 12C836.9 12.7 853.8 16.9 868.3 25.5Z" fill="#FF0066"/>
<path d="M141.8 269.2C151.5 281.1 154.6 297.4 159.2 311.7C163.9 326.1 170 338.5 170.3 351.5C170.5 364.4 164.8 377.8 155.5 387.3C146.1 396.9 133 402.5 119.8 405.7C106.5 408.8 92.9 409.5 80.2 406.3C67.5 403.1 55.6 395.9 44.4 386.3C33.2 376.7 22.7 364.7 17.5 349.9C12.4 335.2 12.6 317.7 21.4 306.4C30.1 295.2 47.4 290.1 61.9 280.5C76.5 270.9 88.2 256.7 102.2 253.3C116.1 250 132.2 257.4 141.8 269.2Z" fill="#FF0066"/>
<path d="M381.4 276.6C392.6 282.7 399.9 296 404.1 309.5C408.4 323 409.7 336.6 407.3 349.4C405 362.1 399 374.1 391.5 387.1C384 400.2 375 414.3 361.9 421.2C348.8 428.1 331.6 427.6 316.4 422.3C301.2 417 287.9 406.8 276.6 394.5C265.2 382.2 255.8 367.8 257 354C258.1 340.1 270 326.8 276.6 310.5C283.2 294.2 284.6 275.1 294.3 268.3C304 261.5 322 267.1 338.6 269.3C355.1 271.6 370.3 270.5 381.4 276.6Z" fill="#FF0066"/>
<path d="M626.8 270.9C641.6 276.7 655.3 288.1 658.3 302.1C661.3 316.1 653.8 332.8 643.2 343.3C632.6 353.7 619 357.9 611.8 369.1C604.5 380.3 603.5 398.5 595.6 407.3C587.7 416.1 572.8 415.6 559.6 411C546.4 406.4 534.8 397.8 523.1 387.5C511.4 377.2 499.7 365.2 494.8 350.5C489.9 335.7 491.9 318.2 501.5 307C511 295.7 528 290.7 542.4 284.6C556.7 278.5 568.4 271.2 582.2 267.9C596 264.5 611.9 265 626.8 270.9Z" fill="#FF0066"/>
<path d="M859.3 275.1C870 285.8 877.2 298.2 884.3 311.3C891.3 324.5 898.2 338.3 894.8 349.6C891.3 360.8 877.5 369.4 864.6 371.5C851.6 373.6 839.5 369.2 831.3 365.7C823.2 362.2 819.1 359.6 815.4 357.6C811.8 355.6 808.5 354.2 797.8 353C787.1 351.9 769 350.9 759.7 343.3C750.3 335.8 749.6 321.7 757.5 314.4C765.4 307.2 782 306.9 793.8 296.7C805.7 286.5 812.8 266.4 823.6 260.9C834.3 255.3 848.5 264.4 859.3 275.1Z" fill="#FF0066"/>
<path d="M134.7 529.3C146.4 533.4 158.1 540.8 163.9 551.4C169.7 562.1 169.6 576 165.1 587.5C160.6 599 151.7 608.1 144.8 622.3C137.9 636.4 132.9 655.8 124.2 654.8C115.6 653.9 103.2 632.6 92.6 621.9C82.1 611.1 73.4 610.8 66.5 606.8C59.5 602.8 54.2 595.1 53.7 587.1C53.2 579 57.4 570.8 63.9 566.4C70.4 562 79.1 561.5 85.5 555.1C91.9 548.6 95.9 536.1 103.7 530.2C111.5 524.4 123.1 525.3 134.7 529.3Z" fill="#FF0066"/>
<path d="M380.3 518.3C389.3 523 391.5 539.2 392.4 552.7C393.3 566.2 393 576.9 393.1 588.8C393.3 600.8 393.9 614 388.7 624.8C383.4 635.5 372.3 643.8 360.9 643.7C349.5 643.6 337.9 635.1 328.3 628.4C318.6 621.7 310.9 616.8 299.5 611C288.1 605.2 273 598.5 265.4 586.9C257.8 575.3 257.7 558.9 267.5 550.9C277.3 542.9 297 543.4 310.8 540.8C324.5 538.3 332.3 532.8 344 526.7C355.7 520.5 371.4 513.6 380.3 518.3Z" fill="#FF0066"/>
<path d="M617.1 519.2C629.4 530.2 641.7 538.2 650.5 550C659.4 561.8 664.8 577.4 662.9 592C660.9 606.7 651.8 620.5 641.3 633.9C630.9 647.3 619.2 660.4 605.4 662.9C591.5 665.4 575.6 657.3 560 651.2C544.4 645.2 529.2 641.2 520.4 631.4C511.6 621.7 509.3 606.1 509.9 591.8C510.4 577.4 513.8 564.4 519.5 552.6C525.2 540.8 533.2 530.3 543.7 518.4C554.2 506.6 567.1 493.5 579.7 493.9C592.4 494.3 604.8 508.2 617.1 519.2Z" fill="#FF0066"/>
<path d="M856.2 524.1C868.7 531.6 881.6 538.8 884.5 549.3C887.4 559.8 880.2 573.7 875.8 586.4C871.4 599.1 869.9 610.5 865.3 623.7C860.8 637 853.2 652 842 655.8C830.8 659.5 815.9 651.9 801.2 646.5C786.5 641 772 637.6 759.2 629.2C746.5 620.7 735.5 607.2 737.4 594.3C739.4 581.4 754.3 569.1 765.2 558.9C776 548.7 782.7 540.6 791.2 531.3C799.7 522.1 809.8 511.6 820.9 510.2C831.9 508.9 843.8 516.7 856.2 524.1Z" fill="#FF0066"/>
<path d="M136.9 765.1C149.3 770.5 161.9 778.3 168.2 789.6C174.5 800.9 174.6 815.8 170.5 828.7C166.5 841.6 158.2 852.5 149.7 864.2C141.3 876 132.6 888.6 121.1 891.9C109.7 895.2 95.6 889.2 83.7 882.5C71.8 875.8 62.1 868.5 54.8 859.5C47.5 850.5 42.5 839.7 38.3 827.3C34.1 814.9 30.7 800.8 33.1 787C35.6 773.1 43.9 759.4 56 753.8C68.1 748.3 84.1 751 98.2 753.9C112.3 756.7 124.5 759.7 136.9 765.1Z" fill="#FF0066"/>
<path d="M378.3 841.6C364.6 865.7 311.4 866.5 298.4 842.7C285.5 819 312.7 770.7 339.3 770.3C365.9 769.9 391.9 817.4 378.3 841.6Z" fill="#FF0066"/>
<path d="M641.8 793.3C651.3 800.9 644.3 827 631.3 849.7C618.2 872.4 599.1 891.7 585.5 888.5C571.9 885.3 563.8 859.7 560.8 842.8C557.9 826 560.1 817.9 564.2 813.5C568.2 809.2 574.1 808.6 590.1 802.7C606.1 796.9 632.2 785.8 641.8 793.3Z" fill="#FF0066"/>
</svg>
